<svg xmlns="http://www.w3.org/2000/svg" version="1.1" xmlns:xlink="http://www.w3.org/1999/xlink" xmlns:svgjs="http://svgjs.dev/svgjs" width="1500" height="1500" viewBox="0 0 1500 1500"><rect width="1500" height="1500" fill="#4a5d5e"></rect><g transform="matrix(0.6666666666666666,0,0,0.6666666666666666,249.39393939393932,618.6924592635667)"><svg viewBox="0 0 396 104" data-background-color="#4a5d5e" preserveAspectRatio="xMidYMid meet" height="393" width="1500" xmlns="http://www.w3.org/2000/svg" xmlns:xlink="http://www.w3.org/1999/xlink"><g id="tight-bounds" transform="matrix(1,0,0,1,0.24000000000003752,0.12207723888954547)"><svg viewBox="0 0 395.5199999999999 103.7558455222209" height="103.7558455222209" width="395.5199999999999"><g><svg viewBox="0 0 556.5101170915216 145.98801006396891" height="103.7558455222209" width="395.5199999999999"><g transform="matrix(1,0,0,1,0,41.220112244169016)"><svg viewBox="0 0 395.52 63.547785575630876" height="63.547785575630876" width="395.52"><g id="textblocktransform"><svg viewBox="0 0 395.52 63.547785575630876" height="63.547785575630876" width="395.52" id="textblock"><g><svg viewBox="0 0 395.52 63.547785575630876" height="63.547785575630876" width="395.52"><g transform="matrix(1,0,0,1,0,0)"><svg width="395.52" viewBox="2.6 -40.8 334.8299999999999 53.8" height="63.547785575630876" data-palette-color="#d2dbc8"><path d="M34.45 0.9L34.45 0.9 33.15-3.2Q27.35 1 21.95 1L21.95 1Q17.05 1 13.4-0.78 9.75-2.55 7.35-5.48 4.95-8.4 3.78-12.13 2.6-15.85 2.6-19.75L2.6-19.75Q2.6-23.7 3.98-27.48 5.35-31.25 8.03-34.2 10.7-37.15 14.55-38.98 18.4-40.8 23.35-40.8L23.35-40.8Q30.25-40.8 36.05-37.8L36.05-37.8 36.05-28.2Q35.15-28.05 34.45-28.05L34.45-28.05Q33.7-28.05 33.2-28.2L33.2-28.2 31.6-36.55Q28.4-38.55 22.75-38.55L22.75-38.55Q19.6-38.55 17.05-37.13 14.5-35.7 12.65-33.27 10.8-30.85 9.8-27.58 8.8-24.3 8.8-20.6L8.8-20.6Q8.8-16.65 9.73-13.3 10.65-9.95 12.35-7.5 14.05-5.05 16.48-3.68 18.9-2.3 21.9-2.3L21.9-2.3Q26.75-2.3 31.45-4.95L31.45-4.95 31.45-15.6 27.4-16.1Q27.3-16.35 27.3-16.9L27.3-16.9Q27.3-17.15 27.3-17.4 27.3-17.65 27.4-17.95L27.4-17.95Q28.8-17.85 30.48-17.8 32.15-17.75 34.25-17.75L34.25-17.75Q37.9-17.75 41.15-17.9L41.15-17.9Q41.3-17.45 41.3-17L41.3-17Q41.3-16.55 41.15-16.1L41.15-16.1 37-15.5Q36.9-14.55 36.85-13.1 36.8-11.65 36.8-9.65L36.8-9.65 36.8-4.6 36.3 0.9Q36.1 1 35.9 1 35.7 1 35.45 1L35.45 1Q35.2 1 34.95 1 34.7 1 34.45 0.9ZM52.15 7.4L52.15 7.4 55.35-0.15 45.65-24.05 41.75-24.85Q41.5-25.85 41.75-26.85L41.75-26.85Q44.5-26.65 48.45-26.65L48.45-26.65Q52-26.65 55.2-26.8L55.2-26.8Q55.5-25.8 55.2-24.85L55.2-24.85 50.9-24.15 55.65-12.9Q56.65-10.45 57.75-6.05L57.75-6.05 57.85-6.05Q58.7-9.05 60.2-12.65L60.2-12.65 64.55-24.3 60.65-24.85Q60.45-25.65 60.65-26.85L60.65-26.85Q63.4-26.65 66-26.65L66-26.65Q68.2-26.65 71.45-26.8L71.45-26.8Q71.75-25.8 71.45-24.85L71.45-24.85 67.5-24.3 54.3 8Q53.25 10.5 51.95 11.75 50.65 13 48.5 13L48.5 13Q46.8 13 45.87 12.58 44.95 12.15 44 10.95L44 10.95Q44.3 8.2 46.85 6.55L46.85 6.55Q48.9 8.85 50.35 8.85L50.35 8.85Q51.6 8.85 52.15 7.4ZM109.95-8.7L109.95-17.85Q109.95-24.8 105.5-24.8L105.5-24.8Q101.7-24.8 98.3-19.55L98.3-19.55 98.3-2.55 102.35-1.8Q102.55-1 102.35 0.2L102.35 0.2Q99.2 0.05 95.95 0.05L95.95 0.05Q93.65 0.05 89.45 0.15L89.45 0.15Q89.15-0.8 89.45-1.8L89.45-1.8 93.4-2.35Q93.6-5.1 93.6-8.7L93.6-8.7 93.6-17.85Q93.6-24.8 89.15-24.8L89.15-24.8Q86.9-24.8 85.2-23.43 83.5-22.05 81.7-19.15L81.7-19.15 81.7-2.55 85.75-1.8Q85.95-1 85.75 0.2L85.75 0.2Q82.6 0.05 79.35 0.05L79.35 0.05Q77.05 0.05 72.85 0.15L72.85 0.15Q72.55-0.8 72.85-1.8L72.85-1.8 76.8-2.35Q77-5.1 77-8.7L77-8.7 77-22.4Q77-23.4 76.85-24.25L76.85-24.25 72.9-24.75Q72.7-25.5 72.9-26.65L72.9-26.65Q76.25-26.9 81.45-27.7L81.45-27.7Q81.9-27.2 81.95-26.7L81.95-26.7Q81.7-25.4 81.7-22.25L81.7-22.25Q85.65-27.7 90.6-27.7L90.6-27.7Q93.2-27.7 95.35-26.38 97.5-25.05 98.1-22.3L98.1-22.3Q102.1-27.7 106.95-27.7L106.95-27.7Q110-27.7 112.32-25.9 114.65-24.1 114.65-20.35L114.65-20.35 114.65-2.55 118.7-1.8Q118.9-1 118.7 0.2L118.7 0.2Q115.55 0.05 112.3 0.05L112.3 0.05Q110 0.05 105.8 0.15L105.8 0.15Q105.5-0.8 105.8-1.8L105.8-1.8 109.75-2.35Q109.95-5.1 109.95-8.7L109.95-8.7ZM141.69-8.7L141.69-17.85Q141.69-21.7 140.67-23.25 139.64-24.8 137.24-24.8L137.24-24.8Q133.54-24.8 129.79-19.25L129.79-19.25 129.79-2.55 133.84-1.8Q134.04-1 133.84 0.2L133.84 0.2Q130.69 0.05 127.39 0.05L127.39 0.05Q125.09 0.05 120.89 0.15L120.89 0.15Q120.59-0.8 120.89-1.8L120.89-1.8 124.84-2.35Q125.04-5.1 125.04-8.7L125.04-8.7 125.04-22.4Q125.04-23.4 124.89-24.25L124.89-24.25 120.94-24.75Q120.74-25.5 120.94-26.65L120.94-26.65Q124.39-26.9 129.54-27.7L129.54-27.7Q129.99-27.2 130.04-26.7L130.04-26.7Q129.79-25.4 129.79-22.25L129.79-22.25Q133.74-27.7 138.69-27.7L138.69-27.7Q146.44-27.7 146.44-20.35L146.44-20.35 146.44-2.55 150.49-1.8Q150.69-1 150.49 0.2L150.49 0.2Q147.34 0.05 144.04 0.05L144.04 0.05Q141.74 0.05 137.54 0.15L137.54 0.15Q137.24-0.8 137.54-1.8L137.54-1.8 141.49-2.35Q141.69-5.1 141.69-8.7L141.69-8.7ZM157.99-6.65L157.99-6.65Q157.99-4.05 158.94-2.98 159.89-1.9 161.94-1.9L161.94-1.9Q163.44-1.9 165.27-2.83 167.09-3.75 168.64-5.5L168.64-5.5 168.64-13.3Q163.49-13 160.74-11.48 157.99-9.95 157.99-6.65ZM168.64-15.1L168.64-15.1 168.64-17.65Q168.64-21.9 167.67-23.83 166.69-25.75 164.44-25.75L164.44-25.75Q162.14-25.75 160.74-24.28 159.34-22.8 158.84-19.25L158.84-19.25Q157.24-18.9 156.49-18.9L156.49-18.9Q154.54-18.9 154.19-20.3L154.19-20.3Q154.19-23.7 157.14-25.7 160.09-27.7 164.49-27.7L164.49-27.7Q169.34-27.7 171.37-25.73 173.39-23.75 173.39-18.65L173.39-18.65 173.39-4.55Q173.39-3.3 173.54-2.4L173.54-2.4 177.49-1.9Q177.69-1.15 177.49 0L177.49 0Q173.94 0.15 169.94 0.7L169.94 0.7Q169.54 0.3 169.44-0.3L169.44-0.3 169.19-3.75Q165.04 1 159.94 1L159.94 1Q156.79 1 155.02-0.8 153.24-2.6 153.24-5.65L153.24-5.65Q153.24-10.25 157.42-12.6 161.59-14.95 168.64-15.1ZM189.04-1.2L189.04-1.2Q191.74-1.2 193.04-2.45 194.34-3.7 194.34-5.35L194.34-5.35Q194.34-6.3 194.04-7.1 193.74-7.9 193.06-8.65 192.39-9.4 191.29-10.13 190.19-10.85 188.54-11.7L188.54-11.7Q186.49-12.75 185.01-13.7 183.54-14.65 182.59-15.7 181.64-16.75 181.16-17.95 180.69-19.15 180.69-20.65L180.69-20.65Q180.69-22.45 181.34-23.78 181.99-25.1 183.16-25.98 184.34-26.85 185.94-27.28 187.54-27.7 189.49-27.7L189.49-27.7Q193.39-27.7 197.09-25.8L197.09-25.8 197.09-19.4 194.74-19.4 193.64-24.8Q191.44-25.85 188.99-25.85L188.99-25.85Q184.89-25.85 184.89-22.5L184.89-22.5Q184.89-20.7 186.24-19.2 187.59-17.7 190.59-16.2L190.59-16.2Q192.64-15.15 194.19-14.2 195.74-13.25 196.76-12.2 197.79-11.15 198.31-9.93 198.84-8.7 198.84-7.15L198.84-7.15Q198.84-5.4 198.09-3.9 197.34-2.4 195.99-1.33 194.64-0.25 192.74 0.38 190.84 1 188.54 1L188.54 1Q184.09 1 180.19-0.9L180.19-0.9 180.19-7.3 182.54-7.3 183.64-2.35Q186.19-1.2 189.04-1.2ZM219.28-17.25L219.28-17.25 204.44-17.25Q203.99-18.75 204.44-19.75L204.44-19.75 219.28-19.75Q219.69-18.6 219.28-17.25ZM224.03-28.2L224.08-39.8 258.63-39.8 258.68-28.2Q257.58-28 256.83-28.2L256.83-28.2 254.48-37.25 244.08-37.25 244.08-2.2 249.13-1.7Q249.33-0.95 249.13 0.15L249.13 0.15Q245.98 0 241.53 0L241.53 0Q238.08 0 233.88 0.1L233.88 0.1Q233.58-0.8 233.88-1.7L233.88-1.7 238.53-2.3Q238.73-4.2 238.73-8.15L238.73-8.15 238.73-37.25 228.23-37.25 225.88-28.2Q225.13-28 224.03-28.2L224.03-28.2ZM278.28-14.1L278.28-14.1 262.58-14.1Q262.13-1.35 270.23-1.35L270.23-1.35Q273.68-1.35 277.28-4.4L277.28-4.4Q278.03-3.95 278.43-2.85L278.43-2.85Q274.98 1 269.68 1L269.68 1Q257.48 1 257.48-13.35L257.48-13.35Q257.48-20.15 261.08-23.93 264.68-27.7 269.48-27.7L269.48-27.7Q274.73-27.7 277.03-24.05 279.33-20.4 279.33-14.55L279.33-14.55Q278.83-14.15 278.28-14.1ZM269.38-25.7L269.38-25.7Q266.78-25.7 264.96-23 263.13-20.3 262.73-16.1L262.73-16.1 268.93-16.1Q272.63-16.1 274.23-16.55L274.23-16.55Q274.23-20.65 272.98-23.18 271.73-25.7 269.38-25.7ZM305.38-20.3L305.38-20.3Q304.33-19.2 300.43-19.25L300.43-19.25Q299.63-25.55 295.88-25.55L295.88-25.55Q292.93-25.55 290.88-22.15 288.83-18.75 288.83-13.2L288.83-13.2Q288.83-7.5 290.63-4.42 292.43-1.35 296.03-1.35L296.03-1.35Q299.83-1.35 303.48-4.45L303.48-4.45Q304.23-4 304.63-2.9L304.63-2.9Q300.98 1 295.48 1L295.48 1Q290.23 1 286.88-2.63 283.53-6.25 283.53-13.3L283.53-13.3Q283.53-20.05 287.25-23.88 290.98-27.7 295.78-27.7L295.78-27.7Q299.58-27.7 302.48-25.8 305.38-23.9 305.38-20.3ZM312.18-8.7L312.18-32.45Q312.18-35.75 312.03-37.35L312.03-37.35 308.08-37.85Q307.88-38.6 308.08-39.75L308.08-39.75Q311.43-40 316.63-40.8L316.63-40.8Q317.08-40.3 317.13-39.8L317.13-39.8Q316.88-38.5 316.88-31.7L316.88-31.7 316.88-22.25Q320.58-27.35 325.78-27.35L325.78-27.35Q328.88-27.35 331.08-25.8 333.28-24.25 333.28-20.5L333.28-20.5 333.28-2.55 337.33-1.8Q337.53-1 337.33 0.2L337.33 0.2Q334.18 0.05 330.93 0.05L330.93 0.05Q328.63 0.05 324.43 0.15L324.43 0.15Q324.13-0.8 324.43-1.8L324.43-1.8 328.38-2.35Q328.58-5.1 328.58-8.7L328.58-8.7 328.58-18Q328.58-21.5 327.7-23.05 326.83-24.6 324.53-24.6L324.53-24.6Q322.63-24.6 320.55-23.2 318.48-21.8 316.88-19.15L316.88-19.15 316.88-2.55 320.93-1.8Q321.13-1 320.93 0.2L320.93 0.2Q317.78 0.05 314.53 0.05L314.53 0.05Q312.23 0.05 308.03 0.15L308.03 0.15Q307.73-0.8 308.03-1.8L308.03-1.8 311.98-2.35Q312.18-5.1 312.18-8.7L312.18-8.7Z" opacity="1" transform="matrix(1,0,0,1,0,0)" fill="#d2dbc8" class="wordmark-text-0" data-fill-palette-color="primary" id="text-0"></path></svg></g></svg></g></svg></g></svg></g><g transform="matrix(1,0,0,1,410.52210702755264,0)"><svg viewBox="0 0 145.98801006396891 145.98801006396891" height="145.98801006396891" width="145.98801006396891"><g><svg></svg></g><g id="icon-0"><svg viewBox="0 0 145.98801006396891 145.98801006396891" height="145.98801006396891" width="145.98801006396891"><g><rect width="132.74094989149765" height="132.74094989149765" x="6.6235300862356326" y="6.6235300862356326" fill="#f8f8ec" data-fill-palette-color="accent"></rect><rect width="132.74094989149765" height="132.74094989149765" x="7.105427357601002e-15" y="7.105427357601002e-15" fill="#f8f8ec" opacity="0.5" data-fill-palette-color="accent"></rect></g><g transform="matrix(1,0,0,1,18.92437167495894,18.924371674958934)"><svg viewBox="0 0 108.13926671405103 108.13926671405105" height="108.13926671405105" width="108.13926671405103"><g><svg xmlns="http://www.w3.org/2000/svg" xmlns:xlink="http://www.w3.org/1999/xlink" version="1.1" x="0" y="0" viewBox="0.002 0 63.99999999999999 64" enable-background="new 0 0 64 64" xml:space="preserve" id="dxe-0" width="108.13926671405103" height="108.13926671405105" class="icon-dxe-0" data-fill-palette-color="quaternary"><path d="M56.783 64H7.22C3.24 64 0.002 60.762 0.002 56.781V7.219C0.002 3.239 3.24 0 7.22 0H56.783C60.763 0 64.002 3.238 64.002 7.218V56.781A7.227 7.227 0 0 1 56.783 64M7.22 3A4.223 4.223 0 0 0 3.002 7.219V56.781A4.223 4.223 0 0 0 7.22 61H56.783A4.224 4.224 0 0 0 61.002 56.781V7.219A4.224 4.224 0 0 0 56.783 3z" fill="#4a5d5e" data-fill-palette-color="quaternary"></path><path d="M58.209 30.5H54.438V28A1.5 1.5 0 1 0 51.438 28V30.5H50.438V25.458A1.5 1.5 0 1 0 47.438 25.458V30.5H46.438V23.667A1.5 1.5 0 1 0 43.438 23.667V30.5H20.563V23.667A1.5 1.5 0 1 0 17.563 23.667V30.5H16.563V25.458A1.5 1.5 0 1 0 13.563 25.458V30.5H12.563V28A1.5 1.5 0 1 0 9.563 28V30.5H5.792A1.5 1.5 0 1 0 5.792 33.5H9.563V36A1.5 1.5 0 1 0 12.563 36V33.5H13.563V38.542A1.5 1.5 0 1 0 16.563 38.542V33.5H17.563V40.333A1.5 1.5 0 1 0 20.563 40.333V33.5H43.438V40.333A1.5 1.5 0 0 0 46.438 40.333V33.5H47.438V38.542A1.5 1.5 0 0 0 50.438 38.542V33.5H51.438V36A1.5 1.5 0 0 0 54.438 36V33.5H58.209A1.5 1.5 0 0 0 58.209 30.5" fill="#4a5d5e" data-fill-palette-color="quaternary"></path></svg></g></svg></g></svg></g></svg></g></svg></g><defs></defs></svg><rect width="395.5199999999999" height="103.7558455222209" fill="none" stroke="none" visibility="hidden"></rect></g></svg></g></svg>