<svg xmlns="http://www.w3.org/2000/svg" version="1.1" xmlns:xlink="http://www.w3.org/1999/xlink" xmlns:svgjs="http://svgjs.dev/svgjs" width="1500" height="511" viewBox="0 0 1500 511"><g transform="matrix(1,0,0,1,-0.9090909090909918,10.208772083683982)"><svg viewBox="0 0 396 135" data-background-color="#4d1d3b" preserveAspectRatio="xMidYMid meet" height="511" width="1500" xmlns="http://www.w3.org/2000/svg" xmlns:xlink="http://www.w3.org/1999/xlink"><g id="tight-bounds" transform="matrix(1,0,0,1,0.2400000000000091,0.015537890438821478)"><svg viewBox="0 0 395.52 134.96892421912239" height="134.96892421912239" width="395.52"><g><svg viewBox="0 0 664.8726365736136 226.88396162285636" height="134.96892421912239" width="395.52"><g transform="matrix(1,0,0,1,267.3750365736137,46.33215524847175)"><svg viewBox="0 0 397.4975999999999 134.21965112591286" height="134.21965112591286" width="397.4975999999999"><g id="textblocktransform"><svg viewBox="0 0 397.4975999999999 134.21965112591286" height="134.21965112591286" width="397.4975999999999" id="textblock"><g><rect width="397.4975999999999" height="8.297620553520458" x="0" y="101.78539135510515" fill="#d5cfd8" opacity="1" stroke-width="0" stroke="transparent" fill-opacity="1" class="rect-yte-0" data-fill-palette-color="primary" rx="1%" id="yte-0" data-palette-color="#d5cfd8"></rect></g><g transform="matrix(1,0,0,1,0.9887999999999693,0)"><svg viewBox="0 0 395.52 92.01070745697895" height="92.01070745697895" width="395.52"><g transform="matrix(1,0,0,1,0,0)"><svg width="395.52" viewBox="2.5 -35.5 156.88 36.5" height="92.01070745697895" data-palette-color="#d5cfd8"><path d="M15.6-1L5.1-1Q4-1 3.25-2 2.5-3 2.5-4.85L2.5-4.85 2.5-32.8 4.3-35.5 14.95-35.5 14.95-28.05 12.8-28.05 11.3-32.55 7.95-32.55Q5.95-32.55 5.85-30.3L5.85-30.3 6.75-5.5Q6.75-5.15 7.1-4.88 7.45-4.6 7.8-4.6L7.8-4.6 11.45-4.6Q11.8-4.6 12.13-4.78 12.45-4.95 12.45-5.2L12.45-5.2 12.95-14.9 9.95-15 9.95-17.8 15.6-18.45 15.6-1ZM27.25-18.45L28.1 0 24.25 0 24.25-18.7 19.6-35 24.15-35 25.85-20.65 26.25-20.75 27.75-35.5 31.25-35.5 29.05-21.55 27.25-18.45ZM37.09 0L34.5 0 34.5-35.5 38.09-35.5 41.75-13.8 42.15-13.8 45.55-35.5 48.45-35.5 49.59 0 46.3 0 46.3-26.75 45.95-26.75 42.5-7.85 40.84-7.5 37.3-29.45 37.09-29.45 37.09 0ZM66.44-35.5L65.44 1 62.04 1 57.14-27.7 56.94-27.7 55.99 1 53.44 1 55.04-35.5 58.09-35.5 63.14-6.55 63.49-6.55 63.49-35.5 66.44-35.5ZM80.14-35.5L82.19 0 79.99 0 78.19-13.3 74.19-11.4 73.09 0 69.99 0 72.24-35.5 80.14-35.5ZM77.54-33.1Q77.54-33.4 77.24-33.4L77.24-33.4 75.09-32.9Q74.79-32.75 74.79-32.4L74.79-32.4 74.79-14.8Q74.79-14.55 75.09-14.55L75.09-14.55 76.94-14.85Q77.24-14.85 77.24-15.15L77.24-15.15 77.54-33.1ZM95.79-28.45L93.94-28.45 92.94-32.35 89.94-32 89.19-20.9 96.44-19.6 95.74-3Q95.74-2 94.44-1 93.14 0 92.04 0L92.04 0 86.19 0 85.74-8.55 88.69-8.55 88.64-4.2 92.14-3.4 92.94-16.7 86.19-18.2 86.19-34.3 88.19-35.5 96.04-35.5 95.79-28.45ZM100.19-35.5L110.54-34.8 110.79-31.65 106.39-31.65 106.39 0 102.14 0 103.14-30.75 99.54-31.95 100.19-35.5ZM125.48-4.15L125.48 0 114.78 0 114.78-35.5 125.48-35.5 125.48-32.4 119.23-32.7 119.23-21.35 125.48-20.2 125.48-17.8 118.38-18.1 118.38-3.75 125.48-4.15ZM143.33-9.35L143.33-1 132.68-1 130.63-3.1 131.63-32.65Q131.68-33.75 132.56-34.63 133.43-35.5 134.98-35.5L134.98-35.5 135.63-35.45 143.33-34.45 142.53-26.4 140.23-26.4 140.23-31.05Q140.23-31.5 139.63-31.5L139.63-31.5 136.53-31.5Q135.58-31.5 135.16-30.73 134.73-29.95 134.73-29L134.73-29Q134.73-28.45 134.88-28.35L134.88-28.35 134.88-4.95Q134.73-4.9 134.73-4.8L134.73-4.8Q134.73-4.65 135.18-4.65L135.18-4.65 140.13-4.65Q140.73-4.65 140.73-4.95L140.73-4.95 140.73-8.7 141.68-9.3 143.33-9.35ZM157.18 0L155.73-15.5 151.43-16.35 151.43 0 147.73 0 147.73-35.5 151.33-35.5 150.78-19.75 155.73-20 155.73-35.5 159.38-35.5 159.38 0 157.18 0Z" opacity="1" transform="matrix(1,0,0,1,0,0)" fill="#d5cfd8" class="wordmark-text-0" data-fill-palette-color="primary" id="text-0"></path></svg></g></svg></g><g transform="matrix(1,0,0,1,0,119.8576958067518)"><svg viewBox="0 0 232.209792 14.36195531916108" height="14.36195531916108" width="232.209792"><g transform="matrix(1,0,0,1,0,0)"><svg width="232.209792" viewBox="0 -34.25 700.83 43.35" height="14.36195531916108" data-palette-color="#d5cfd8"><path d="M18.25-0.45L10.25-0.45 10.25-10.25 0-31.95 0-32.1 8.75-32.1Q10.3-28.05 11.23-25.63 12.15-23.2 12.68-21.83 13.2-20.45 13.5-19.6 13.8-18.75 14.15-17.8L14.15-17.8 14.35-17.8Q14.7-18.75 15-19.6 15.3-20.45 15.83-21.83 16.35-23.2 17.28-25.63 18.2-28.05 19.75-32.1L19.75-32.1 28.5-32.1 28.5-31.95 18.25-10.25 18.25-0.45ZM29.75-12.45L29.75-12.45Q29.75-19.15 32.6-22.1 35.45-25.05 42.25-25.05L42.25-25.05Q46.8-25.05 49.55-23.75 52.3-22.45 53.52-19.68 54.75-16.9 54.75-12.45L54.75-12.45Q54.75-8.05 53.52-5.3 52.3-2.55 49.55-1.28 46.8 0 42.25 0L42.25 0Q35.45 0 32.6-2.93 29.75-5.85 29.75-12.45ZM42.25-6.85L42.25-6.85Q45.15-6.85 46.17-8.13 47.2-9.4 47.2-12.6L47.2-12.6Q47.2-15.65 46.17-16.98 45.15-18.3 42.25-18.3L42.25-18.3Q39.45-18.3 38.37-16.98 37.3-15.65 37.3-12.6L37.3-12.6Q37.3-9.4 38.37-8.13 39.45-6.85 42.25-6.85ZM67 0L67 0Q62.4 0 60.45-2.45 58.5-4.9 58.5-9.45L58.5-9.45 58.5-24.8 66.5-24.8 66.55-11.4Q66.55-9.15 67.34-8.22 68.15-7.3 70.59-7.3L70.59-7.3Q72.95-7.3 73.77-8.13 74.59-8.95 74.65-10.95L74.65-10.95 74.65-24.8 82.65-24.8 82.65-0.45 75.05-0.45 74.65-3.2 74.5-3.2Q73.84-1.75 71.84-0.88 69.84 0 67 0ZM96.74-9.25L96.64-0.45 88.64-0.45 88.64-24.8 95.14-24.8 95.79-19.8 95.94-19.8Q96.39-22.6 98.09-23.83 99.79-25.05 103.14-25.05L103.14-25.05Q104.49-25.05 105.59-24.93 106.69-24.8 107.44-24.7L107.44-24.7 107.44-16.9 107.34-16.8Q106.54-17 105.52-17.15 104.49-17.3 103.19-17.3L103.19-17.3Q101.34-17.3 99.87-16.7 98.39-16.1 97.57-14.38 96.74-12.65 96.74-9.25L96.74-9.25 96.74-9.25ZM126.44-7.75L126.44-7.75 126.44-18.25 123.44-18.25 123.44-24.75 127.19-24.75 128.69-30.7 134.44-30.7 134.44-24.75 139.89-24.75 139.89-18.25 134.44-18.25 134.44-9.5Q134.44-8.1 134.79-7.58 135.14-7.05 136.39-7.05L136.39-7.05Q137.19-7.05 138.09-7.13 138.99-7.2 139.89-7.3L139.89-7.3 140.04-7.2 140.04-0.7Q137.64 0 133.69 0L133.69 0Q129.74 0 128.09-1.8 126.44-3.6 126.44-7.75ZM165.99-6.8L165.99-1.25Q164.59-0.75 162.11-0.38 159.64 0 156.24 0L156.24 0Q151.94 0 148.91-1.13 145.89-2.25 144.34-4.98 142.79-7.7 142.79-12.55L142.79-12.55Q142.79-19.15 145.81-22.1 148.84-25.05 155.19-25.05L155.19-25.05Q159.74-25.05 162.36-23.75 164.99-22.45 166.11-20.08 167.24-17.7 167.24-14.45L167.24-14.45Q167.24-13.5 167.16-12.4 167.09-11.3 166.89-10.25L166.89-10.25 166.69-10.05 150.24-10.05Q150.59-7.85 152.31-7.15 154.04-6.45 157.94-6.45L157.94-6.45Q160.54-6.45 162.26-6.58 163.99-6.7 165.79-6.95L165.79-6.95 165.99-6.8ZM150.09-15.3L160.29-15.3Q160.29-16.5 159.91-17.38 159.54-18.25 158.44-18.73 157.34-19.2 155.19-19.2L155.19-19.2Q152.04-19.2 151.06-18.13 150.09-17.05 150.09-15.3L150.09-15.3ZM190.23-7.65L190.43-7.5 190.43-1Q189.18-0.5 186.73-0.25 184.28 0 181.53 0L181.53 0Q177.58 0 174.96-1.1 172.33-2.2 171.06-4.9 169.78-7.6 169.73-12.4L169.73-12.4Q169.73-17.35 171.11-20.1 172.48-22.85 175.13-23.95 177.78-25.05 181.48-25.05L181.48-25.05Q183.68-25.05 186.13-24.75 188.58-24.45 190.13-23.95L190.13-23.95 190.18-17.25 190.03-17.15Q188.53-17.45 186.83-17.6 185.13-17.75 183.48-17.75L183.48-17.75Q180.13-17.75 178.83-16.5 177.53-15.25 177.53-12.3L177.53-12.3Q177.53-10.05 178.08-8.95 178.63-7.85 179.93-7.5 181.23-7.15 183.48-7.15L183.48-7.15Q185.23-7.15 186.83-7.3 188.43-7.45 190.23-7.65L190.23-7.65ZM202.93-12.95L202.93-0.45 194.93-0.45 194.93-34.05 202.93-34.05 202.93-20.35 203.08-20.35Q203.78-22.6 205.66-23.83 207.53-25.05 210.58-25.05L210.58-25.05Q213.48-25.05 215.36-24.1 217.23-23.15 218.16-20.78 219.08-18.4 219.08-14.1L219.08-14.1 219.08-0.45 211.08-0.45 211.03-12.55Q211.03-15.35 210.18-16.55 209.33-17.75 206.98-17.75L206.98-17.75Q204.88-17.75 203.93-16.65 202.98-15.55 202.93-12.95L202.93-12.95ZM248.78-25.05L248.78-25.05Q253.58-25.05 256.52-24.05 259.48-23.05 260.85-20.38 262.23-17.7 262.23-12.65L262.23-12.65 262.23-0.45 254.97-0.45 254.72-2.75 254.58-2.75Q253.63-1.5 251.63-0.75 249.63 0 246.43 0L246.43 0Q237.78 0 237.78-8.1L237.78-8.1Q237.78-11.55 240.05-13.53 242.33-15.5 247.22-15.5L247.22-15.5 254.63-15.5Q254.28-17.6 252.83-18.32 251.38-19.05 247.88-19.05L247.88-19.05Q245.68-19.05 243.55-18.73 241.43-18.4 239.83-18L239.83-18 239.68-18.1 239.72-23.9Q240.72-24.2 242.28-24.48 243.83-24.75 245.55-24.9 247.28-25.05 248.78-25.05ZM248.47-5.9L248.47-5.9Q251.58-5.9 253.13-6.68 254.68-7.45 254.72-9.15L254.72-9.15 254.72-10.4 249.08-10.4Q246.88-10.4 246-9.78 245.13-9.15 245.13-8.1L245.13-8.1Q245.13-6.85 246.03-6.38 246.93-5.9 248.47-5.9ZM275.47-13L275.47-0.45 267.47-0.45 267.47-24.8 275.07-24.8 275.47-20.35 275.62-20.35Q276.32-22.6 278.12-23.83 279.92-25.05 283.12-25.05L283.12-25.05Q287.47-25.05 289.55-22.6 291.62-20.15 291.62-14.1L291.62-14.1 291.62-0.45 283.62-0.45 283.57-12.55Q283.57-15.35 282.72-16.55 281.87-17.75 279.52-17.75L279.52-17.75Q277.32-17.75 276.42-16.68 275.52-15.6 275.47-13L275.47-13ZM319.92-0.45L312.32-0.45 312.02-4 311.82-4Q310.97-2 309.39-1 307.82 0 304.82 0L304.82 0Q299.97 0 297.72-2.83 295.47-5.65 295.37-11.35L295.37-11.35Q295.32-16.45 296.42-19.45 297.52-22.45 299.87-23.75 302.22-25.05 305.87-25.05L305.87-25.05Q307.77-25.05 309.32-24.73 310.87-24.4 311.82-23.85L311.82-23.85 311.92-23.9 311.92-34.1 319.92-34.1 319.92-0.45ZM307.42-6.8L307.42-6.8Q309.42-6.8 310.67-8.05 311.92-9.3 311.92-12.2L311.92-12.2 311.92-17.45Q310.07-18.2 307.57-18.2L307.57-18.2Q305.22-18.2 304.19-17.07 303.17-15.95 303.17-12.55L303.17-12.55Q303.17-9.65 304-8.22 304.82-6.8 307.42-6.8ZM342.72-1.95L342.72-2.1Q341.06-2.8 340.31-3.9 339.56-5 339.56-6.55L339.56-6.55Q339.56-7.95 340.34-9 341.12-10.05 342.42-10.65L342.42-10.65 342.42-10.8Q341.17-11.8 340.59-13.33 340.02-14.85 340.02-16.85L340.02-16.85Q340.02-20.85 342.62-22.95 345.22-25.05 351.62-25.05L351.62-25.05Q356.87-25.05 359.62-23.55L359.62-23.55 359.87-23.55Q360.67-24.85 361.92-25.7 363.17-26.55 364.97-26.55L364.97-26.55Q365.52-26.55 365.97-26.53 366.42-26.5 366.81-26.45L366.81-26.45 366.81-20.3Q365.87-20.5 364.56-20.5L364.56-20.5Q363.52-20.5 362.56-20.3L362.56-20.3Q363.12-18.85 363.12-16.85L363.12-16.85Q363.12-12.55 360.52-10.65 357.92-8.75 351.62-8.75L351.62-8.75Q350.17-8.75 348.92-8.85 347.67-8.95 346.62-9.15L346.62-9.15Q346.42-8.75 346.42-8.2L346.42-8.2Q346.42-7.4 346.94-6.88 347.47-6.35 348.77-6.35L348.77-6.35 355.97-6.35Q360.56-6.35 362.84-4.9 365.12-3.45 365.12 0.7L365.12 0.7Q365.12 4.8 361.92 6.95 358.72 9.1 351.12 9.1L351.12 9.1Q344.87 9.1 342.02 7.43 339.17 5.75 339.17 2.55L339.17 2.55Q339.17 0.8 340.12-0.38 341.06-1.55 342.72-1.95L342.72-1.95ZM351.62-14.1L351.62-14.1Q353.97-14.1 354.92-14.68 355.87-15.25 355.87-16.75L355.87-16.75Q355.87-18.25 354.92-18.95 353.97-19.65 351.62-19.65L351.62-19.65Q349.22-19.65 348.27-18.95 347.31-18.25 347.31-16.75L347.31-16.75Q347.31-15.25 348.27-14.68 349.22-14.1 351.62-14.1ZM352.06 3.2L352.06 3.2Q354.72 3.2 355.97 2.95 357.22 2.7 357.62 2.2 358.02 1.7 358.02 0.95L358.02 0.95Q358.02 0.1 357.52-0.43 357.02-0.95 356.02-0.95L356.02-0.95 348.37-0.95Q347.37-0.95 346.87-0.43 346.37 0.1 346.37 0.95L346.37 0.95Q346.37 1.7 346.79 2.2 347.22 2.7 348.44 2.95 349.67 3.2 352.06 3.2ZM372.11 8.85L372.11 8.75 375.96-0.4 366.31-24.7 366.31-24.8 375.26-24.8Q376.66-20.85 377.89-16.85 379.11-12.85 379.86-8.65L379.86-8.65 379.96-8.65Q380.71-12.8 381.89-16.8 383.06-20.8 384.56-24.8L384.56-24.8 393.16-24.8 393.16-24.65 380.31 8.85 372.11 8.85ZM426.41-25.05L426.41-25.05Q430.11-25.05 432.29-22.6 434.46-20.15 434.46-14.1L434.46-14.1 434.46-0.45 426.46-0.45 426.41-13.1Q426.41-15.55 425.69-16.65 424.96-17.75 422.86-17.75L422.86-17.75Q420.76-17.75 420.04-16.65 419.31-15.55 419.31-13.1L419.31-13.1 419.31-0.45 411.31-0.45 411.26-13.1Q411.26-15.55 410.54-16.65 409.81-17.75 407.71-17.75L407.71-17.75Q405.61-17.75 404.89-16.65 404.16-15.55 404.16-13.1L404.16-13.1 404.16-0.45 396.16-0.45 396.16-24.8 403.76-24.8 404.16-20.35 404.31-20.35Q404.96-22.55 406.59-23.8 408.21-25.05 411.21-25.05L411.21-25.05Q414.21-25.05 415.94-23.8 417.66-22.55 418.16-20.35L418.16-20.35 418.31-20.35Q418.96-22.6 420.84-23.83 422.71-25.05 426.41-25.05ZM473.71-7.65L473.91-7.5 473.91-1Q472.66-0.5 470.21-0.25 467.76 0 465.01 0L465.01 0Q461.06 0 458.43-1.1 455.81-2.2 454.53-4.9 453.26-7.6 453.21-12.4L453.21-12.4Q453.21-17.35 454.58-20.1 455.96-22.85 458.61-23.95 461.26-25.05 464.96-25.05L464.96-25.05Q467.16-25.05 469.61-24.75 472.06-24.45 473.61-23.95L473.61-23.95 473.66-17.25 473.51-17.15Q472.01-17.45 470.31-17.6 468.61-17.75 466.96-17.75L466.96-17.75Q463.61-17.75 462.31-16.5 461.01-15.25 461.01-12.3L461.01-12.3Q461.01-10.05 461.56-8.95 462.11-7.85 463.41-7.5 464.71-7.15 466.96-7.15L466.96-7.15Q468.71-7.15 470.31-7.3 471.91-7.45 473.71-7.65L473.71-7.65ZM476.65-12.45L476.65-12.45Q476.65-19.15 479.5-22.1 482.35-25.05 489.15-25.05L489.15-25.05Q493.7-25.05 496.45-23.75 499.2-22.45 500.43-19.68 501.65-16.9 501.65-12.45L501.65-12.45Q501.65-8.05 500.43-5.3 499.2-2.55 496.45-1.28 493.7 0 489.15 0L489.15 0Q482.35 0 479.5-2.93 476.65-5.85 476.65-12.45ZM489.15-6.85L489.15-6.85Q492.05-6.85 493.08-8.13 494.1-9.4 494.1-12.6L494.1-12.6Q494.1-15.65 493.08-16.98 492.05-18.3 489.15-18.3L489.15-18.3Q486.35-18.3 485.28-16.98 484.2-15.65 484.2-12.6L484.2-12.6Q484.2-9.4 485.28-8.13 486.35-6.85 489.15-6.85ZM536.15-25.05L536.15-25.05Q539.85-25.05 542.03-22.6 544.2-20.15 544.2-14.1L544.2-14.1 544.2-0.45 536.2-0.45 536.15-13.1Q536.15-15.55 535.43-16.65 534.7-17.75 532.6-17.75L532.6-17.75Q530.5-17.75 529.78-16.65 529.05-15.55 529.05-13.1L529.05-13.1 529.05-0.45 521.05-0.45 521-13.1Q521-15.55 520.28-16.65 519.55-17.75 517.45-17.75L517.45-17.75Q515.35-17.75 514.63-16.65 513.9-15.55 513.9-13.1L513.9-13.1 513.9-0.45 505.9-0.45 505.9-24.8 513.5-24.8 513.9-20.35 514.05-20.35Q514.7-22.55 516.33-23.8 517.95-25.05 520.95-25.05L520.95-25.05Q523.95-25.05 525.68-23.8 527.4-22.55 527.9-20.35L527.9-20.35 528.05-20.35Q528.7-22.6 530.58-23.83 532.45-25.05 536.15-25.05ZM557.7-1.15L557.7 8.85 549.7 8.85 549.7-24.8 557.3-24.8 557.7-21.35 557.7-21.05 557.8-21.05Q558.65-23.1 560.22-24.08 561.8-25.05 564.8-25.05L564.8-25.05Q569.65-25.05 571.92-22.23 574.2-19.4 574.25-13.7L574.25-13.7Q574.35-8.65 573.22-5.63 572.1-2.6 569.75-1.3 567.4 0 563.75 0L563.75 0Q561.85 0 560.32-0.35 558.8-0.7 557.8-1.2L557.8-1.2 557.7-1.15ZM562.2-18.25L562.2-18.25Q560.2-18.25 558.95-17.03 557.7-15.8 557.7-12.85L557.7-12.85 557.7-7.6Q559.55-6.85 562.05-6.85L562.05-6.85Q564.4-6.85 565.42-7.98 566.45-9.1 566.45-12.5L566.45-12.5Q566.45-15.45 565.65-16.85 564.85-18.25 562.2-18.25ZM587.74-25.05L587.74-25.05Q592.54-25.05 595.49-24.05 598.44-23.05 599.82-20.38 601.19-17.7 601.19-12.65L601.19-12.65 601.19-0.45 593.94-0.45 593.69-2.75 593.54-2.75Q592.59-1.5 590.59-0.75 588.59 0 585.39 0L585.39 0Q576.74 0 576.74-8.1L576.74-8.1Q576.74-11.55 579.02-13.53 581.29-15.5 586.19-15.5L586.19-15.5 593.59-15.5Q593.24-17.6 591.79-18.32 590.34-19.05 586.84-19.05L586.84-19.05Q584.64-19.05 582.52-18.73 580.39-18.4 578.79-18L578.79-18 578.64-18.1 578.69-23.9Q579.69-24.2 581.24-24.48 582.79-24.75 584.52-24.9 586.24-25.05 587.74-25.05ZM587.44-5.9L587.44-5.9Q590.54-5.9 592.09-6.68 593.64-7.45 593.69-9.15L593.69-9.15 593.69-10.4 588.04-10.4Q585.84-10.4 584.97-9.78 584.09-9.15 584.09-8.1L584.09-8.1Q584.09-6.85 584.99-6.38 585.89-5.9 587.44-5.9ZM614.44-13L614.44-0.45 606.44-0.45 606.44-24.8 614.04-24.8 614.44-20.35 614.59-20.35Q615.29-22.6 617.09-23.83 618.89-25.05 622.09-25.05L622.09-25.05Q626.44-25.05 628.52-22.6 630.59-20.15 630.59-14.1L630.59-14.1 630.59-0.45 622.59-0.45 622.54-12.55Q622.54-15.35 621.69-16.55 620.84-17.75 618.49-17.75L618.49-17.75Q616.29-17.75 615.39-16.68 614.49-15.6 614.44-13L614.44-13ZM643.64-33.85L643.64-33.85Q643.79-32.05 643.79-30.85L643.79-30.85Q643.79-30.15 643.76-29.43 643.74-28.7 643.64-27.8L643.64-27.8Q642.59-27.6 641.59-27.5 640.59-27.4 639.59-27.4L639.59-27.4Q638.64-27.4 637.66-27.5 636.69-27.6 635.69-27.8L635.69-27.8Q635.59-28.65 635.54-29.38 635.49-30.1 635.49-30.8L635.49-30.8Q635.49-31.45 635.54-32.2 635.59-32.95 635.69-33.85L635.69-33.85Q636.69-34.1 637.71-34.18 638.74-34.25 639.74-34.25L639.74-34.25Q640.69-34.25 641.66-34.18 642.64-34.1 643.64-33.85ZM643.64-24.8L643.64-0.45 635.64-0.45 635.64-24.8 643.64-24.8ZM647.44-12.45L647.44-12.45Q647.44-19.15 650.29-22.1 653.14-25.05 659.94-25.05L659.94-25.05Q664.49-25.05 667.24-23.75 669.99-22.45 671.21-19.68 672.44-16.9 672.44-12.45L672.44-12.45Q672.44-8.05 671.21-5.3 669.99-2.55 667.24-1.28 664.49 0 659.94 0L659.94 0Q653.14 0 650.29-2.93 647.44-5.85 647.44-12.45ZM659.94-6.85L659.94-6.85Q662.84-6.85 663.86-8.13 664.89-9.4 664.89-12.6L664.89-12.6Q664.89-15.65 663.86-16.98 662.84-18.3 659.94-18.3L659.94-18.3Q657.14-18.3 656.06-16.98 654.99-15.65 654.99-12.6L654.99-12.6Q654.99-9.4 656.06-8.13 657.14-6.85 659.94-6.85ZM684.68-13L684.68-0.45 676.68-0.45 676.68-24.8 684.28-24.8 684.68-20.35 684.83-20.35Q685.53-22.6 687.33-23.83 689.13-25.05 692.33-25.05L692.33-25.05Q696.68-25.05 698.76-22.6 700.83-20.15 700.83-14.1L700.83-14.1 700.83-0.45 692.83-0.45 692.78-12.55Q692.78-15.35 691.93-16.55 691.08-17.75 688.73-17.75L688.73-17.75Q686.53-17.75 685.63-16.68 684.73-15.6 684.68-13L684.68-13Z" opacity="1" transform="matrix(1,0,0,1,0,0)" fill="#d5cfd8" class="slogan-text-1" data-fill-palette-color="secondary" id="text-1"></path></svg></g></svg></g></svg></g></svg></g><g><svg viewBox="0 0 245.65351679999998 226.88396162285636" height="226.88396162285636" width="245.65351679999998"><g><svg xmlns="http://www.w3.org/2000/svg" xmlns:xlink="http://www.w3.org/1999/xlink" version="1.0" x="0" y="0" viewBox="4.225 10.22 91.15700000000001 84.19200164145471" enable-background="new 0 0 100 100" xml:space="preserve" height="226.88396162285636" width="245.65351679999998" class="icon-icon-0" data-fill-palette-color="accent" id="icon-0"><path d="M46.041 26.532A8.155 8.155 0 0 0 54.198 18.375 8.16 8.16 0 0 0 46.04 10.22 8.16 8.16 0 0 0 37.885 18.375 8.155 8.155 0 0 0 46.04 26.532" fill="#e8e8e8" data-fill-palette-color="accent"></path><path d="M70.7 26H83.69C84.649 26 85.424 25.457 85.424 24.5 85.423 23.542 84.648 23 83.69 23H70.7C69.743 23 68.968 23.542 68.968 24.5 68.968 25.457 69.743 26 70.7 26" fill="#e8e8e8" data-fill-palette-color="accent"></path><path d="M72.865 21H81.525C82.484 21 83.259 20.457 83.259 19.5S82.483 18 81.526 18H72.865C71.908 18 71.133 18.543 71.133 19.5S71.908 21 72.865 21" fill="#e8e8e8" data-fill-palette-color="accent"></path><path d="M68.968 39.5C68.968 40.457 69.743 41 70.7 41H83.69C84.649 41 85.424 40.457 85.424 39.5S84.648 38 83.69 38H70.7C69.743 38 68.968 38.543 68.968 39.5" fill="#e8e8e8" data-fill-palette-color="accent"></path><path d="M72.865 45H81.525C82.484 45 83.259 44.457 83.259 43.5S82.483 42 81.526 42H72.865C71.908 42 71.133 42.543 71.133 43.5S71.908 45 72.865 45" fill="#e8e8e8" data-fill-palette-color="accent"></path><rect x="74" y="28" width="5" height="8" fill="#e8e8e8" data-fill-palette-color="accent"></rect><path d="M93.65 91H80.66C79.701 91 78.926 91.543 78.926 92.5S79.702 94 80.66 94H93.65C94.608 94 95.382 93.457 95.382 92.5S94.608 91 93.65 91" fill="#e8e8e8" data-fill-palette-color="accent"></path><path d="M81.092 87.5C81.092 88.457 81.867 89 82.824 89H91.485C92.443 89 93.217 88.457 93.217 87.5S92.443 86 91.485 86H82.825C81.866 86 81.091 86.543 81.091 87.5" fill="#e8e8e8" data-fill-palette-color="accent"></path><path d="M8.889 26H21.879C22.838 26 23.613 25.457 23.613 24.5 23.612 23.542 22.837 23 21.88 23H8.889C7.93 23 7.157 23.542 7.157 24.5 7.157 25.457 7.93 26 8.889 26" fill="#e8e8e8" data-fill-palette-color="accent"></path><path d="M11.054 21H19.714C20.672 21 21.447 20.457 21.447 19.5S20.672 18 19.714 18H11.054C10.096 18 9.322 18.543 9.322 19.5S10.096 21 11.054 21" fill="#e8e8e8" data-fill-palette-color="accent"></path><path d="M21.88 38H8.889C7.93 38 7.157 38.543 7.157 39.5S7.93 41 8.889 41H21.879C22.838 41 23.613 40.457 23.613 39.5S22.837 38 21.88 38" fill="#e8e8e8" data-fill-palette-color="accent"></path><path d="M19.714 42H11.054C10.096 42 9.322 42.543 9.322 43.5S10.096 45 11.054 45H19.714C20.672 45 21.447 44.457 21.447 43.5S20.672 42 19.714 42" fill="#e8e8e8" data-fill-palette-color="accent"></path><rect x="13" y="28" width="4" height="8" fill="#e8e8e8" data-fill-palette-color="accent"></rect><path d="M81 36H88.454C88.454 31 86 28.338 81 28.338z" fill="#e8e8e8" data-fill-palette-color="accent"></path><path d="M12 28H4.225C4.225 32.32 8.759 35.744 12 35.995z" fill="#e8e8e8" data-fill-palette-color="accent"></path><path d="M73 36V28H19V36H36V94.185C41 94.185 44 89.936 44 84.696V61H49V94.185C53 94.185 57 89.936 57 84.696V36z" fill="#e8e8e8" data-fill-palette-color="accent"></path><path d="M70.47 79.155C66.26 79.155 62.845 82.572 62.845 86.787A7.625 7.625 0 0 0 70.47 94.412 7.627 7.627 0 0 0 78.102 86.787 7.63 7.63 0 0 0 70.47 79.155M70.47 88.952A2.167 2.167 0 0 1 68.305 86.787C68.305 85.589 69.272 84.622 70.47 84.622S72.635 85.589 72.635 86.787C72.635 87.977 71.667 88.952 70.47 88.952" fill="#e8e8e8" data-fill-palette-color="accent"></path></svg></g></svg></g></svg></g><defs></defs></svg><rect width="395.52" height="134.96892421912239" fill="none" stroke="none" visibility="hidden"></rect></g></svg></g></svg>